HIERARCHY
ROOT root
{
	OFFSET 0.000000 0.000000 0.000000
	CHANNELS 6 Xposition Yposition Zposition Zrotation Yrotation Xrotation
	JOINT lhip
	{
		OFFSET 0.058581 -0.082280 -0.017664
		CHANNELS 3 Zrotation Yrotation Xrotation
		JOINT lknee
		{
			OFFSET 0.043451 -0.386469 0.008037
			CHANNELS 3 Zrotation Yrotation Xrotation
			JOINT lankle
			{
				OFFSET -0.014790 -0.426874 -0.037428
				CHANNELS 3 Zrotation Yrotation Xrotation
				JOINT ltoe
				{
					OFFSET 0.041054 -0.060286 0.122042
					CHANNELS 3 Zrotation Yrotation Xrotation
					End Site
					{
						OFFSET 0.000000 0.000000 0.000000
					}
				}
			}
		}
	}
	JOINT rhip
	{
		OFFSET -0.060310 -0.090513 -0.013543
		CHANNELS 3 Zrotation Yrotation Xrotation
		JOINT rknee
		{
			OFFSET -0.043257 -0.383688 -0.004843
			CHANNELS 3 Zrotation Yrotation Xrotation
			JOINT rankle
			{
				OFFSET 0.019056 -0.420046 -0.034562
				CHANNELS 3 Zrotation Yrotation Xrotation
				JOINT rtoe
				{
					OFFSET -0.034840 -0.062106 0.130323
					CHANNELS 3 Zrotation Yrotation Xrotation
					End Site
					{
						OFFSET 0.000000 0.000000 0.000000
					}
				}
			}
		}
	}
	JOINT lowerback
	{
		OFFSET 0.004439 0.124404 -0.038385
		CHANNELS 3 Zrotation Yrotation Xrotation
		JOINT upperback
		{
			OFFSET 0.004488 0.137956 0.026820
			CHANNELS 3 Zrotation Yrotation Xrotation
			JOINT chest
			{
				OFFSET -0.002265 0.056032 0.002855
				CHANNELS 3 Zrotation Yrotation Xrotation
				JOINT lowerneck
				{
					OFFSET -0.013390 0.211636 -0.033468
					CHANNELS 3 Zrotation Yrotation Xrotation
					JOINT upperneck
					{
						OFFSET 0.010113 0.088937 0.050410
						CHANNELS 3 Zrotation Yrotation Xrotation
						End Site
						{
							OFFSET 0.000000 0.000000 0.000000
						}
					}
				}
				JOINT lclavicle
				{
					OFFSET 0.071702 0.114000 -0.018898
					CHANNELS 3 Zrotation Yrotation Xrotation
					JOINT lshoulder
					{
						OFFSET 0.122921 0.045205 -0.019046
						CHANNELS 3 Zrotation Yrotation Xrotation
						JOINT lelbow
						{
							OFFSET 0.255332 -0.015649 -0.022946
							CHANNELS 3 Zrotation Yrotation Xrotation
							JOINT lwrist
							{
								OFFSET 0.265709 0.012698 -0.007375
								CHANNELS 3 Zrotation Yrotation Xrotation
								End Site
								{
									OFFSET 0.000000 0.000000 0.000000
								}
							}
						}
					}
				}
				JOINT rclavicle
				{
					OFFSET -0.082954 0.112472 -0.023707
					CHANNELS 3 Zrotation Yrotation Xrotation
					JOINT rshoulder
					{
						OFFSET -0.113228 0.046853 -0.008472
						CHANNELS 3 Zrotation Yrotation Xrotation
						JOINT relbow
						{
							OFFSET -0.260127 -0.014369 -0.031269
							CHANNELS 3 Zrotation Yrotation Xrotation
							JOINT rwrist
							{
								OFFSET -0.269108 0.006794 -0.006027
								CHANNELS 3 Zrotation Yrotation Xrotation
								End Site
								{
									OFFSET 0.000000 0.000000 0.000000
								}
							}
						}
					}
				}
			}
		}
	}
}
MOTION
Frames: 12
Frame Time: 0.033333
-0.757604 0.286014 0.997146 88.826014 0.512233 87.864854 3.426008 1.477828 -3.091842 -4.983797 1.615156 9.377850 1.682348 10.493398 -8.239829 0.000000 -0.000000 0.000000 -3.838458 -2.781286 -2.876977 4.781238 -2.079459 8.536728 2.063049 -6.521100 -6.166417 0.000000 -0.000000 0.000000 -0.477257 1.554153 5.829065 1.904043 -3.609081 6.716475 -0.093129 -1.925642 1.241386 0.365819 1.346437 9.623183 0.546538 -2.294757 14.653775 -22.859333 1.664685 2.357178 -61.410818 -12.260151 13.114921 6.385511 -17.360740 0.619325 -3.788596 -6.306739 -1.456750 24.930971 2.138774 2.451934 56.714563 10.196857 13.583986 -10.987926 17.731236 -5.917080 3.130076 3.891435 -1.576115 
-0.757541 0.286170 0.997106 88.834607 0.529755 87.899155 3.432701 1.437931 -3.143238 -4.987944 1.630234 9.403946 1.715838 10.506085 -8.239167 0.000000 -0.000000 0.000000 -3.822943 -2.755092 -2.882996 4.771278 -1.996841 8.489130 2.300525 -6.641980 -6.168275 0.000000 -0.000000 0.000000 -0.457985 1.552360 5.788364 1.867186 -3.609690 6.699066 -0.087948 -1.934049 1.263486 0.350882 1.297651 9.599537 0.556463 -2.265647 14.789429 -22.825007 1.475841 2.382017 -61.688039 -12.502804 13.244788 6.389507 -17.633551 0.672196 -3.686416 -6.264544 -1.553878 24.952165 2.274129 2.523330 56.811550 10.522430 13.692362 -10.999566 18.054783 -6.011800 3.078700 3.895879 -1.548059 
-0.757442 0.286374 0.997108 88.818455 0.536579 87.912254 3.425394 1.416563 -3.154690 -4.981359 1.683113 9.414233 1.736454 10.487212 -8.252716 0.000000 -0.000000 0.000000 -3.828964 -2.751230 -2.876914 4.760833 -2.029892 8.458300 2.318924 -6.591974 -6.151247 0.000000 -0.000000 0.000000 -0.464322 1.570529 5.784522 1.863483 -3.615580 6.697338 -0.089166 -1.924831 1.223795 0.342834 1.304024 9.662605 0.548079 -2.269950 14.847193 -22.846507 1.264901 2.353473 -61.926369 -12.725310 13.395368 6.350246 -18.030306 0.699731 -3.581868 -6.247569 -1.624650 24.969140 2.442093 2.522860 56.954552 10.770858 13.813479 -11.024379 18.476329 -6.007114 3.043869 3.949782 -1.587650 
-0.757330 0.286686 0.997125 88.794499 0.538782 87.917625 3.407432 1.396802 -3.146079 -4.967751 1.777443 9.408958 1.767672 10.426954 -8.264556 0.000000 -0.000000 0.000000 -3.849123 -2.722613 -2.860053 4.744079 -2.109689 8.418985 2.329799 -6.516164 -6.130033 0.000000 -0.000000 0.000000 -0.463558 1.576639 5.794348 1.847320 -3.614461 6.683223 -0.088521 -1.922335 1.171327 0.336022 1.347076 9.761509 0.541932 -2.256358 14.918178 -22.853596 0.933616 2.362236 -62.257349 -13.042913 13.569857 6.331027 -18.647952 0.752573 -3.480646 -6.256595 -1.774422 24.953489 2.699452 2.555808 57.218825 11.138115 13.974458 -11.082852 19.088369 -5.974974 3.013220 3.994661 -1.694325 
-0.757252 0.286873 0.997127 88.789201 0.538390 87.911357 3.397364 1.386509 -3.128421 -4.960535 1.833721 9.399769 1.785084 10.380327 -8.272181 0.000000 -0.000000 0.000000 -3.862607 -2.713316 -2.845738 4.734008 -2.157735 8.413027 2.333611 -6.468326 -6.121931 0.000000 -0.000000 0.000000 -0.463739 1.575228 5.803250 1.836240 -3.621268 6.677128 -0.089200 -1.920148 1.131411 0.327922 1.387844 9.805529 0.514526 -2.244853 14.968778 -22.837501 0.731203 2.352885 -62.468543 -13.250440 13.693238 6.295684 -19.035249 0.824236 -3.407670 -6.274095 -1.852301 24.939453 2.861073 2.572727 57.387175 11.370751 14.094216 -11.094588 19.478340 -5.925667 3.007082 4.030251 -1.758395 
-0.757146 0.287100 0.997125 88.783537 0.541360 87.915696 3.386422 1.374118 -3.122137 -4.950239 1.901745 9.392021 1.809902 10.318655 -8.270389 0.000000 -0.000000 0.000000 -3.871984 -2.711910 -2.849019 4.713850 -2.221327 8.425482 2.342266 -6.396170 -6.114976 0.000000 -0.000000 0.000000 -0.469520 1.580074 5.801325 1.834236 -3.636563 6.665325 -0.080702 -1.916136 1.073205 0.311839 1.435549 9.882874 0.478983 -2.221247 15.026596 -22.814874 0.447281 2.334799 -62.760671 -13.521423 13.874798 6.270592 -19.594161 0.896508 -3.309803 -6.273036 -1.936534 24.917804 3.088490 2.602125 57.610481 11.666082 14.259581 -11.125794 20.015392 -5.855154 3.023205 4.097012 -1.835120 
-0.757048 0.287325 0.997115 88.775992 0.540928 87.936836 3.372785 1.357051 -3.132107 -4.938996 1.981398 9.381332 1.834541 10.252545 -8.271928 0.000000 -0.000000 0.000000 -3.879866 -2.720998 -2.879231 4.684165 -2.280865 8.443974 2.358727 -6.320648 -6.103531 0.000000 -0.000000 0.000000 -0.476882 1.593216 5.766001 1.841058 -3.659085 6.684910 -0.071783 -1.920126 1.011818 0.282593 1.516566 9.932065 0.436445 -2.217991 15.070783 -22.765386 0.135587 2.292396 -63.065109 -13.786558 14.076551 6.253499 -20.095780 0.936250 -3.213132 -6.343285 -2.006275 24.897729 3.305482 2.618272 57.812699 11.931010 14.422464 -11.146531 20.599471 -5.766906 3.016627 4.187762 -1.871011 
-0.756954 0.287541 0.997094 88.776842 0.537979 87.958422 3.361567 1.332491 -3.145348 -4.933298 2.066452 9.376358 1.843857 10.188782 -8.284844 0.000000 -0.000000 0.000000 -3.889417 -2.729915 -2.914247 4.653129 -2.344259 8.473786 2.370934 -6.249273 -6.110335 0.000000 -0.000000 0.000000 -0.487304 1.603938 5.728645 1.850687 -3.679965 6.703571 -0.059731 -1.929633 0.966510 0.265354 1.611221 9.977634 0.406121 -2.219691 15.103115 -22.703151 -0.158265 2.258985 -63.340463 -14.044641 14.265483 6.211175 -20.591572 1.013385 -3.115266 -6.460262 -2.096879 24.876628 3.504807 2.615533 58.003550 12.187412 14.584463 -11.156336 21.134492 -5.640668 3.005547 4.296058 -1.887561 
-0.756803 0.287737 0.997079 88.822666 0.542390 87.959136 3.355923 1.309395 -3.149541 -4.927229 2.105415 9.391250 1.855037 10.125608 -8.294571 0.000000 -0.000000 0.000000 -3.896656 -2.711256 -2.902936 4.633673 -2.433087 8.483443 2.373664 -6.219382 -6.120269 0.000000 -0.000000 0.000000 -0.500883 1.593176 5.721926 1.862851 -3.704231 6.685721 -0.033961 -1.941706 0.937836 0.246784 1.678486 10.024978 0.376715 -2.212155 15.120677 -22.643010 -0.400794 2.235924 -63.569991 -14.291643 14.409706 6.142905 -21.133591 1.080245 -3.020637 -6.490198 -2.231385 24.855212 3.693636 2.631592 58.149054 12.407523 14.729309 -11.144459 21.639597 -5.530797 2.987458 4.353556 -1.920587 
-0.756641 0.287976 0.997081 88.874180 0.543001 87.967176 3.339542 1.273501 -3.165027 -4.919019 2.134128 9.413586 1.867090 10.079337 -8.307239 0.000000 -0.000000 0.000000 -3.906470 -2.701360 -2.896355 4.609278 -2.517240 8.487658 2.382937 -6.188632 -6.124564 0.000000 -0.000000 0.000000 -0.511573 1.594556 5.710636 1.876802 -3.727738 6.675630 -0.006567 -1.957385 0.904856 0.225562 1.754569 10.045417 0.352685 -2.224421 15.167860 -22.561624 -0.669238 2.212049 -63.805714 -14.551029 14.573036 6.071181 -21.722647 1.195729 -2.936584 -6.585794 -2.321128 24.828898 3.884903 2.651374 58.301662 12.621563 14.877184 -11.144213 22.156923 -5.366825 3.004786 4.463745 -1.914388 
-0.756524 0.288159 0.997090 88.911014 0.538974 87.973490 3.323218 1.242894 -3.169227 -4.917040 2.150803 9.414592 1.875743 10.053010 -8.310795 0.000000 -0.000000 0.000000 -3.918859 -2.695330 -2.896534 4.590838 -2.577460 8.500134 2.399915 -6.167848 -6.132634 0.000000 -0.000000 0.000000 -0.516684 1.594261 5.717920 1.882809 -3.732608 6.654449 0.012216 -1.965910 0.892246 0.220215 1.797015 10.056112 0.346702 -2.225822 15.192586 -22.489722 -0.821514 2.193996 -63.954577 -14.705948 14.679259 6.012611 -22.127958 1.284387 -2.851029 -6.685010 -2.433499 24.796624 3.990534 2.661737 58.412661 12.757244 14.973536 -11.142820 22.449170 -5.264826 2.996641 4.541919 -1.931383 
-0.756407 0.288328 0.997098 88.948904 0.534552 87.979544 3.306797 1.216899 -3.170956 -4.916023 2.157126 9.409879 1.887269 10.028993 -8.312528 0.000000 -0.000000 0.000000 -3.932821 -2.679445 -2.889574 4.580004 -2.628064 8.500179 2.407137 -6.167487 -6.135134 0.000000 -0.000000 0.000000 -0.515969 1.591183 5.722151 1.886405 -3.732098 6.641578 0.021609 -1.968292 0.889468 0.222455 1.829868 10.068802 0.344938 -2.240031 15.199962 -22.432668 -0.924493 2.189790 -64.038277 -14.815153 14.742476 5.975224 -22.474609 1.333093 -2.784270 -6.719082 -2.527524 24.773792 4.064345 2.676336 58.477206 12.835148 15.037995 -11.133711 22.662876 -5.199219 2.983012 4.557832 -1.951104 
